# AST/ASF file generated using VICON BodyLanguage
# -----------------------------------------------
:version 1.10
:name VICON
:units
  mass 1.0
  length 0.45
  angle deg
:documentation
   .ast/.asf automatically generated from VICON data using
   VICON BodyBuilder and BodyLanguage model FoxedUp or BRILLIANT.MOD
:root
   order TX TY TZ RX RY RZ
   axis XYZ
   position 0 0 0  
   orientation 0 0 0 
:bonedata
  begin
     id 1 
     name lhipjoint
     direction 0.623529 -0.717805 0.309788 
     length 2.23224 
     axis 0 0 0  XYZ
  end
  begin
     id 2 
     name lfemur
     direction 0.34202 -0.939693 0  
     length 7.11402  
     axis 0 0 20  XYZ
    dof rx ry rz
    limits (-160.0 20.0)
           (-70.0 70.0)
           (-60.0 70.0)
  end
  begin
     id 3 
     name ltibia
     direction 0.34202 -0.939693 0   
     length 6.78496   
     axis 0 0 20   XYZ
    dof rx
    limits (-10.0 170.0)
  end
  begin
     id 4 
     name lfoot
     direction 0.125078 -0.343648 0.930732   
     length 1.84054   
     axis -90 7.62852e-016 20   XYZ
    dof rx rz
    limits (-45.0 90.0)
           (-70.0 20.0)
  end
  begin
     id 5 
     name ltoes
     direction 1.53565e-011 -4.21893e-011 1   
     length 0.916474   
     axis -90 7.62852e-016 20   XYZ
    dof rx
    limits (-90.0 20.0)
  end
  begin
     id 6 
     name rhipjoint
     direction -0.564688 -0.757748 0.327026   
     length 2.11457  
     axis 0 0 0  XYZ 
  end
  begin
     id 7 
     name rfemur
     direction -0.34202 -0.939693 0   
     length 7.14609   
     axis 0 0 -20   XYZ
    dof rx ry rz
    limits (-160.0 20.0)
           (-70.0 70.0)
           (-70.0 60.0)
  end
  begin
     id 8 
     name rtibia
     direction -0.34202 -0.939693 0   
     length 6.78101   
     axis 0 0 -20   XYZ
    dof rx
    limits (-10.0 170.0)
 end
 begin
     id 9 
     name rfoot
     direction -0.0992671 -0.272734 0.956955   
     length 1.96168  
     axis -90 -7.62852e-016 -20   XYZ
    dof rx rz
    limits (-45.0 90.0)
           (-20.0 70.0)
  end
  begin
     id 10 
     name rtoes
     direction -1.5356e-011 -4.21891e-011 1   
     length 0.982933   
     axis -90 -7.62852e-016 -20   XYZ
    dof rx
    limits (-90.0 20.0)
  end
  begin
     id 11 
     name lowerback
     direction -0.00596953 0.998668 0.0512524   
     length 1.87557   
     axis 0 0 0   XYZ
    dof rx ry rz
    limits (-20.0 45.0)
           (-30.0 30.0)
           (-30.0 30.0)
  end
  begin
     id 12 
     name upperback
     direction 0.00584879 0.999652 0.0257308   
     length 1.87883   
     axis 0 0 0   XYZ
    dof rx ry rz
    limits (-20.0 45.0)
           (-30.0 30.0)
           (-30.0 30.0)
  end
  begin
     id 13 
     name thorax
     direction 0.010104 0.999947 0.00178881   
     length 1.87779   
     axis 0 0 0   XYZ
    dof rx ry rz
    limits (-20.0 45.0)
           (-30.0 30.0)
           (-30.0 30.0)
  end
  begin
     id 14 
     name lowerneck
     direction 0.0120771 0.995934 -0.0892773   
     length 1.40897   
     axis 0 0 0   XYZ
    dof rx ry rz
    limits (-20.0 45.0)
           (-30.0 30.0)
           (-30.0 30.0)
  end
  begin
     id 15 
     name upperneck
     direction -0.030568 0.999465 -0.0116366   
     length 1.38661   
     axis 0 0 0   XYZ
    dof rx ry rz
    limits (-20.0 45.0)
           (-30.0 30.0)
           (-30.0 30.0)
  end
  begin
     id 16
     name head
     direction -0.0170715 0.999854 -0.00104426  
     length 1.47052  
     axis 0 0 0   XYZ
    dof rx ry rz
    limits (-20.0 45.0)
           (-30.0 30.0)
           (-30.0 30.0)
  end
  begin
     id 17 
     name lclavicle
     direction 0.977763 0.206143 0.038532  
     length 3.02424  
     axis 0 0 0   XYZ
    dof ry rz
    limits (-20.0 10.0)
           (0.0 20.0)
  end
  begin
     id 18 
     name lhumerus
     direction 1 -4.48965e-011 -2.62654e-027   
     length 4.68382   
     axis 180 -30 -90   XYZ
    dof rx ry rz
    limits (-60.0 90.0)
           (-90.0 90.0)
           (-90.0 90.0)
  end
  begin
     id 19
     name lradius
     direction 1 -4.48973e-011 -1.54954e-027   
     length 2.98124   
     axis 180 -30 -90   XYZ
    dof rx
    limits (-10.0 170.0)
  end
  begin
     id 20
     name lwrist
     direction 1 -4.48959e-011 7.20928e-028   
     length 1.49062   
     axis -5.52449e-016 90 90   XYZ
    dof ry
    limits (-180.0 0.0)
 end
  begin
     id 21 
     name lhand
     direction 1 -4.48971e-011 1.44186e-027   
     length 0.707595   
     axis -9.20027e-016 90 90   XYZ
    dof rx rz
    limits (-90.0 90.0)
           (-45.0 45.0)
  end
  begin
     id 22 
     name lfingers
     direction 1 -4.48985e-011 2.88371e-027   
     length 0.570481   
     axis -1.84005e-015 90 90   XYZ
    dof rx
    limits (0.0 90.0)
  end
  begin
     id 23
     name lthumb
     direction 0.707107 -6.34929e-011 0.707107   
     length 0.819101   
     axis -90 45 2.85299e-015   XYZ
    dof rx rz
    limits (-45.0 45.0)
           (-45.0 45.0)
  end
  begin
     id 24 
     name rclavicle
     direction -0.958661 0.284411 -0.00895327   
     length 3.11921  
     axis 0 0 0   XYZ 
    dof ry rz
    limits (-10.0 20.0)
           (-20.0 0.0)
  end
  begin
     id 25 
     name rhumerus
     direction -1 -4.48963e-011 -4.22193e-027  
     length 4.75876   
     axis 180 30 90   XYZ
    dof rx ry rz
    limits (-90.0 60.0)
           (-90.0 90.0)
           (-90.0 90.0)
  end
  begin
     id 26 
     name rradius
     direction -1 -4.48968e-011 -1.07616e-027   
     length 2.93293   
     axis 180 30 90   XYZ
    dof rx
    limits (-10.0 170.0)
  end
  begin
     id 27 
     name rwrist
     direction -1 -4.48965e-011 7.20928e-028   
     length 1.46647   
     axis -5.52449e-016 -90 -90   XYZ
    dof ry
    limits (-180.0 0.0)
  end
  begin
     id 28
     name rhand
     direction -1 -4.48971e-011 1.44186e-027   
     length 0.831748   
     axis -9.20027e-016 -90 -90   XYZ
    dof rx rz
    limits (-90.0 90.0)
           (-45.0 45.0)
  end
  begin
     id 29
     name rfingers
     direction -1 -4.48961e-011 2.88371e-027   
     length 0.670577   
     axis -1.84005e-015 -90 -90   XYZ
    dof rx
    limits (0.0 90.0)
  end
  begin
     id 30
     name rthumb
     direction -0.707107 -6.34929e-011 0.707107   
     length 0.962818   
     axis -90 -45 -2.85299e-015   XYZ
    dof rx rz
    limits (-45.0 45.0)
           (-45.0 45.0)
  end
:hierarchy
  begin
    root lhipjoint rhipjoint lowerback
    lhipjoint lfemur
    lfemur ltibia
    ltibia lfoot
    lfoot ltoes
    rhipjoint rfemur
    rfemur rtibia
    rtibia rfoot
    rfoot rtoes
    lowerback upperback
    upperback thorax
    thorax lowerneck lclavicle rclavicle
    lowerneck upperneck
    upperneck head
    lclavicle lhumerus
    lhumerus lradius
    lradius lwrist
    lwrist lhand lthumb
    lhand lfingers
    rclavicle rhumerus
    rhumerus rradius
    rradius rwrist
    rwrist rhand rthumb
    rhand rfingers
  end

#!OML:ASF E:\id_vita\Project 1\Capture day 1\Session 1\Female.ASF
:FULLY-SPECIFIED
:DEGREES
476
root 33.2484 16.8173 -9.76249 -151.215 67.5222 182.721
lowerback -14.9133 0.68892 -6.48683
upperback -3.70561 2.17413 -0.585965
thorax 4.20696 1.13653 3.44838
lowerneck 1.43901 1.57413 -5.71155
upperneck -2.06442 2.20225 7.79346
head -1.08016 1.08046 3.5072
rclavicle 4.25399e-014 -7.15625e-015
rhumerus 85.5419 -6.72952 -57.8134
rradius 29.6016
rwrist 11.6541
rhand -30.3421 18.6499
rfingers 7.12502
rthumb -3.6478 -11.2987
lclavicle 4.25399e-014 -7.15625e-015
lhumerus 98.1521 1.68109 79.0794
lradius 15.8139
lwrist -53.5814
lhand -43.6121 32.0295
lfingers 7.12502
lthumb -16.4478 61.3522
rfemur -9.4753 4.80329 23.5597
rtibia 17.0591
rfoot 1.39209 -4.07938
rtoes -12.4504
lfemur -44.0827 -5.85918 -16.7737
ltibia 27.9761
lfoot -12.4857 -2.3862
ltoes 6.7551
477
root 33.2341 16.8205 -9.75036 -151.709 67.8152 182.283
lowerback -14.9746 0.678831 -6.72385
upperback -3.70146 2.20541 -0.624888
thorax 4.23332 1.14983 3.54839
lowerneck 2.27847 1.436 -4.76519
upperneck -2.83683 2.0146 6.82939
head -1.43257 0.967037 2.99682
rclavicle 3.00165e-014 2.62396e-014
rhumerus 85.5303 -6.60839 -57.4859
rradius 29.2839
rwrist 11.4228
rhand -30.7252 18.4626
rfingers 7.12502
rthumb -4.01779 -11.4793
lclavicle 3.00165e-014 2.62396e-014
lhumerus 97.8799 1.28423 79.6303
lradius 16.0446
lwrist -54.3522
lhand -44.0031 32.511
lfingers 7.12502
lthumb -16.8242 61.8021
rfemur -9.48888 4.09609 23.3026
rtibia 17.0782
rfoot 0.960615 -3.31371
rtoes -12.5697
lfemur -43.9994 -5.737 -17.0436
ltibia 27.9875
lfoot -12.45 -2.33893
ltoes 7.14449
478
root 33.2049 16.8241 -9.73979 -151.895 67.9071 182.383
lowerback -14.5747 0.734776 -6.5196
upperback -3.75766 2.2128 -0.650621
thorax 3.9655 1.16465 3.39208
lowerneck 2.35037 1.53785 -4.22701
upperneck -2.72248 2.14731 6.43165
head -1.39993 1.03212 2.75636
rclavicle 7.39479e-014 -2.50469e-014
rhumerus 85.0667 -6.39116 -57.1712
rradius 29.3395
rwrist 11.592
rhand -31.4578 18.0152
rfingers 7.12502
rthumb -4.72521 -11.9121
lclavicle 7.39479e-014 -2.50469e-014
lhumerus 97.7543 0.948903 80.4422
lradius 15.8562
lwrist -55.3386
lhand -44.1044 32.2902
lfingers 7.12502
lthumb -16.9217 61.573
rfemur -9.25583 4.15919 23.2922
rtibia 17.1089
rfoot 0.802323 -3.34922
rtoes -12.5733
lfemur -43.7799 -5.62629 -17.1373
ltibia 28.0185
lfoot -12.4117 -2.3558
ltoes 6.82895
479
root 33.1937 16.8225 -9.72378 -152.791 68.2012 181.474
lowerback -14.6747 0.735298 -6.96406
upperback -3.77771 2.2944 -0.707622
thorax 3.97365 1.2047 3.59886
lowerneck 2.64307 1.41645 -4.51199
upperneck -2.8979 1.97868 6.61472
head -1.50701 0.942108 2.87637
rclavicle 8.15017e-015 3.69739e-014
rhumerus 84.525 -6.29169 -56.6167
rradius 29.6338
rwrist 11.4831
rhand -31.5969 17.1247
rfingers 7.12502
rthumb -4.85952 -12.7995
lclavicle 8.15017e-015 3.69739e-014
lhumerus 97.6133 0.669606 81.1848
lradius 15.7542
lwrist -56.1453
lhand -44.5053 33.9672
lfingers 7.12502
lthumb -17.3076 63.2166
rfemur -9.16705 6.56651 22.8493
rtibia 17.1721
rfoot 1.75797 -5.52821
rtoes -13.041
lfemur -43.7656 -5.57251 -17.5284
ltibia 28.0084
lfoot -12.3423 -2.33014
ltoes 7.47805
480
root 33.1844 16.8202 -9.71114 -153.086 68.3677 181.232
lowerback -15.0516 0.773019 -7.18614
upperback -3.58342 2.40598 -0.615389
thorax 4.35774 1.23474 3.85912
lowerneck 2.82329 1.36002 -4.54511
upperneck -3.33391 1.89404 6.20808
head -1.66833 0.899851 2.74928
rclavicle 6.72886e-014 -1.59028e-014
rhumerus 84.3483 -6.43082 -55.9903
rradius 29.7048
rwrist 10.9943
rhand -31.4635 17.0269
rfingers 7.12502
rthumb -4.7307 -12.9003
lclavicle 6.72886e-014 -1.59028e-014
lhumerus 97.7291 0.5651 81.6291
lradius 15.6649
lwrist -56.5227
lhand -43.4253 32.3831
lfingers 7.12502
lthumb -16.2679 61.7207
rfemur -9.18936 5.70291 22.7474
rtibia 17.204
rfoot 1.38013 -4.72881
rtoes -13.1467
lfemur -43.743 -5.62604 -17.5447
ltibia 28.0337
lfoot -12.2831 -2.19242
ltoes 8.126
481
root 33.1673 16.817 -9.70344 -152.576 68.3063 181.89
lowerback -15.0053 0.873028 -6.73658
upperback -3.61331 2.46217 -0.60164
thorax 4.31398 1.26822 3.62793
lowerneck 3.04684 1.35293 -3.94132
upperneck -3.56114 1.88223 5.53914
head -1.75876 0.892518 2.41355
rclavicle -4.70126e-014 3.18055e-015
rhumerus 83.9214 -6.4016 -55.4003
rradius 29.6351
rwrist 11.2048
rhand -32.2304 16.0988
rfingers 7.12502
rthumb -5.47116 -13.8106
lclavicle -4.70126e-014 3.18055e-015
lhumerus 97.6928 0.340294 82.3968
lradius 15.5532
lwrist -57.2615
lhand -43.1155 30.8356
lfingers 7.12502
lthumb -15.9696 60.1973
rfemur -9.13052 6.1024 23.0262
rtibia 17.2597
rfoot 1.52145 -5.06218
rtoes -13.2176
lfemur -43.6951 -5.71948 -17.1799
ltibia 28.0592
lfoot -12.2256 -2.0692
ltoes 7.99816
482
root 33.1469 16.814 -9.69505 -152.439 68.3319 182.05
lowerback -15.0088 0.789254 -6.46858
upperback -3.73899 2.31831 -0.690624
thorax 4.21381 1.20957 3.35528
lowerneck 2.52414 1.61529 -4.44108
upperneck -2.83755 2.24262 6.4675
head -1.47824 1.07728 2.80668
rclavicle 3.77691e-015 -8.74653e-015
rhumerus 83.6112 -6.00014 -55.2175
rradius 29.3082
rwrist 11.4577
rhand -33.9071 16.9083
rfingers 7.12502
rthumb -7.08993 -12.953
lclavicle 3.77691e-015 -8.74653e-015
lhumerus 97.2102 1.15076 79.7777
lradius 15.8263
lwrist -55.0706
lhand -43.1998 30.6919
lfingers 7.12502
lthumb -16.0507 60.0471
rfemur -9.22519 6.57434 23.075
rtibia 17.3459
rfoot 1.61261 -5.56215
rtoes -12.8525
lfemur -43.7548 -5.78553 -17.0329
ltibia 28.0849
lfoot -12.1304 -1.98459
ltoes 7.91597
483
root 33.1232 16.8132 -9.68334 -152.333 68.3755 182.28
lowerback -14.9526 0.766852 -6.29152
upperback -3.71935 2.25339 -0.663237
thorax 4.21691 1.17675 3.27159
lowerneck 2.66547 1.56505 -4.45708
upperneck -2.99294 2.18379 6.59202
head -1.55299 1.04359 2.85395
rclavicle -1.99779e-014 6.75868e-015
rhumerus 83.4945 -5.80245 -55.2365
rradius 29.2614
rwrist 11.4738
rhand -34.2162 17.576
rfingers 7.12502
rthumb -7.38821 -12.275
lclavicle -1.99779e-014 6.75868e-015
lhumerus 96.8797 1.99779 76.7309
lradius 15.9256
lwrist -52.0015
lhand -43.8053 31.4204
lfingers 7.12502
lthumb -16.6337 60.7276
rfemur -9.2291 6.36494 23.1796
rtibia 17.3763
rfoot 1.38677 -5.48231
rtoes -12.8203
lfemur -43.7791 -5.75824 -16.9201
ltibia 28.182
lfoot -12.0623 -1.94974
ltoes 7.83357
484
root 33.1068 16.8158 -9.66765 -152.761 68.5862 181.822
lowerback -15.1245 0.686762 -6.61433
upperback -3.69309 2.20998 -0.615312
thorax 4.32703 1.14877 3.5031
lowerneck 2.04622 1.82279 -5.02803
upperneck -2.48358 2.51865 6.94119
head -1.31703 1.22547 3.07323
rclavicle -8.54774e-015 -2.22639e-014
rhumerus 83.4466 -5.56667 -55.2416
rradius 29.3103
rwrist 11.7078
rhand -34.0316 17.0515
rfingers 7.12502
rthumb -7.21007 -12.8056
lclavicle -8.54774e-015 -2.22639e-014
lhumerus 96.6255 2.02496 76.6463
lradius 16.0985
lwrist -51.7817
lhand -43.8814 32.9638
lfingers 7.12502
lthumb -16.7071 62.2648
rfemur -9.35275 6.51447 22.969
rtibia 17.457
rfoot 1.37468 -5.59838
rtoes -13.2888
lfemur -43.8657 -5.6867 -17.1064
ltibia 28.2087
lfoot -11.9957 -1.94245
ltoes 7.87811
